<?xml version="1.0" standalone="no"?>
<!DOCTYPE svg PUBLIC "-//W3C//DTD SVG 20010904//EN"
 "http://www.w3.org/TR/2001/REC-SVG-20010904/DTD/svg10.dtd">
<svg version="1.0" xmlns="http://www.w3.org/2000/svg"
 width="540.000000pt" height="540.000000pt" viewBox="0 0 540.000000 540.000000"
 preserveAspectRatio="xMidYMid meet">
<metadata>
Created by potrace 1.14, written by Peter Selinger 2001-2017
</metadata>
<g transform="translate(0.000000,540.000000) scale(0.100000,-0.100000)"
fill="#000000" stroke="none">
<path d="M2278 5375 c-3 -3 -18 -8 -34 -11 -16 -3 -48 -9 -72 -15 -24 -5 -61
-12 -84 -14 -22 -3 -45 -8 -50 -11 -5 -3 -21 -7 -36 -9 -15 -2 -40 -9 -57 -16
-16 -7 -32 -13 -35 -14 -37 -9 -58 -21 -73 -39 -10 -11 -15 -14 -11 -6 5 9 -1
7 -15 -5 -58 -51 -87 -192 -61 -299 12 -45 21 -94 22 -113 1 -7 4 -13 7 -13 3
0 7 -14 8 -31 1 -17 8 -37 14 -45 6 -8 9 -14 6 -14 -2 0 3 -31 13 -68 34 -127
18 -165 -90 -213 -30 -13 -58 -28 -62 -34 -4 -5 -8 -6 -8 -2 0 4 -20 -6 -44
-23 -25 -16 -47 -30 -51 -30 -3 0 -16 -11 -29 -25 -13 -14 -26 -25 -30 -25
-11 0 -106 -74 -106 -83 0 -4 -4 -6 -8 -3 -5 3 -20 -6 -35 -20 -15 -14 -27
-21 -27 -17 0 4 -6 1 -13 -7 -16 -20 -42 -23 -69 -8 -13 7 -27 11 -33 9 -5 -1
-7 1 -3 5 6 6 -28 34 -106 86 -10 7 -32 24 -47 36 -16 13 -29 21 -29 17 0 -3
-7 1 -16 9 -41 41 -169 103 -234 113 -76 12 -156 -11 -190 -55 -11 -13 -20
-21 -20 -17 0 4 -10 -5 -22 -21 -13 -16 -22 -32 -20 -36 1 -5 -2 -8 -7 -8 -9
0 -88 -121 -83 -128 2 -3 0 -8 -5 -11 -12 -8 -84 -131 -77 -131 3 0 -2 -7 -10
-16 -9 -8 -14 -20 -11 -25 4 -5 2 -9 -2 -9 -14 0 -31 -78 -29 -136 1 -34 8
-60 19 -72 9 -10 14 -22 10 -25 -13 -14 182 -180 232 -198 6 -2 18 -10 28 -19
10 -8 20 -13 24 -12 3 2 9 -1 12 -6 3 -5 39 -30 79 -56 61 -39 72 -49 62 -61
-7 -8 -9 -15 -5 -15 4 0 3 -6 -2 -12 -18 -23 -73 -209 -88 -298 -3 -19 -8 -42
-10 -50 -5 -22 -14 -95 -20 -172 -7 -98 -35 -154 -75 -155 -13 0 -60 -9 -150
-29 -14 -3 -38 -7 -55 -10 -95 -16 -215 -53 -215 -67 0 -4 -3 -6 -8 -4 -4 3
-21 -6 -37 -20 -17 -14 -24 -22 -16 -18 9 6 12 4 7 -3 -4 -7 -14 -12 -22 -12
-13 0 -18 -12 -15 -32 0 -5 -3 -8 -8 -8 -24 0 -34 -132 -16 -227 11 -59 51
-234 59 -258 1 -5 6 -22 11 -37 4 -16 12 -28 18 -28 6 0 8 -3 4 -6 -8 -9 21
-64 34 -64 6 0 8 -4 5 -8 -7 -12 53 -69 89 -82 47 -19 172 -21 260 -5 113 21
115 21 165 36 25 7 48 12 51 11 3 0 30 5 60 13 34 9 55 11 57 5 2 -6 9 -16 16
-23 7 -6 13 -16 14 -22 1 -5 7 -17 14 -26 7 -8 14 -22 16 -30 2 -8 10 -19 17
-25 8 -6 13 -13 10 -16 -14 -14 207 -276 299 -354 16 -14 24 -29 21 -43 -6
-31 -36 -91 -46 -91 -5 0 -9 -5 -9 -11 0 -5 -20 -39 -45 -75 -25 -35 -45 -66
-45 -69 0 -3 -9 -16 -20 -28 -12 -12 -27 -33 -34 -47 -7 -14 -29 -53 -49 -88
-39 -67 -53 -117 -49 -171 4 -42 28 -101 41 -101 6 0 10 -4 8 -9 -4 -16 225
-201 250 -201 6 0 16 -7 23 -15 7 -8 16 -12 21 -9 5 3 9 1 9 -4 0 -8 58 -42
80 -47 3 -1 27 -11 54 -23 88 -40 154 -34 235 22 37 26 119 118 90 101 -8 -4
-4 1 7 13 19 18 36 44 107 166 11 17 27 45 38 62 10 17 15 35 11 39 -4 5 -2 5
5 1 11 -6 30 29 25 47 -1 5 1 6 6 3 5 -3 22 20 38 50 27 50 31 54 59 50 17 -2
37 -6 45 -10 8 -3 26 -7 40 -10 14 -2 47 -9 74 -15 27 -7 51 -9 54 -7 2 3 12
1 21 -3 17 -9 124 -21 251 -26 122 -6 119 -4 135 -90 4 -16 8 -43 9 -60 4 -29
11 -73 21 -125 10 -48 15 -75 20 -100 4 -22 10 -52 30 -150 12 -53 37 -120 46
-120 6 0 8 -4 5 -8 -9 -15 53 -80 96 -101 37 -17 57 -20 138 -16 102 4 160 12
197 26 13 5 23 7 23 4 0 -2 25 5 55 15 30 10 55 17 55 15 0 -4 15 0 95 31 11
4 25 8 32 10 28 5 118 84 98 84 -5 0 -2 6 6 13 29 23 36 63 35 172 -2 125 -3
131 -46 280 -18 61 -33 117 -35 125 -1 8 -5 22 -8 30 -11 31 -28 89 -33 115
-3 20 3 32 28 55 17 16 34 28 36 25 5 -5 104 55 114 69 4 6 8 8 8 3 0 -11 80
44 80 55 0 5 3 7 8 5 4 -3 38 17 76 44 38 27 65 49 60 49 -5 0 6 10 25 23 19
12 45 29 58 38 23 16 26 15 56 -12 17 -16 37 -29 43 -29 7 0 14 -4 16 -9 4
-12 175 -131 187 -131 6 0 11 -4 11 -8 0 -10 93 -72 109 -72 6 0 11 -4 11 -9
0 -9 60 -37 73 -33 4 1 7 -2 7 -7 0 -12 54 -24 125 -26 59 -3 110 13 127 39 4
6 8 7 8 2 0 -13 63 54 100 109 19 27 43 58 52 69 10 10 15 22 13 26 -3 5 2 11
11 14 8 3 13 10 10 15 -3 5 1 11 9 15 8 3 15 12 15 20 0 8 4 16 8 18 10 4 74
108 66 108 -4 0 0 10 9 23 19 29 35 104 30 142 -5 36 -25 85 -35 85 -5 0 -8 5
-8 12 0 25 -177 168 -194 157 -3 -2 -11 3 -18 12 -7 9 -40 31 -73 49 -33 18
-91 50 -130 73 -38 22 -72 41 -75 40 -3 0 -10 13 -17 28 -10 25 -8 41 17 115
16 48 27 90 24 95 -3 5 -1 9 3 9 5 0 15 28 23 63 7 34 14 67 16 72 3 14 14 73
19 110 3 17 8 48 11 70 4 22 7 50 8 62 1 11 4 19 8 17 4 -3 10 7 14 21 3 14 9
24 11 21 3 -2 20 4 38 14 18 10 55 22 81 26 27 3 53 9 58 12 5 3 25 7 45 8 20
2 50 6 66 8 17 2 55 7 85 11 63 8 181 50 192 68 4 7 13 12 20 12 7 0 25 20 42
44 24 36 29 55 31 115 2 39 -1 98 -6 131 -5 33 -12 73 -14 89 -2 15 -8 38 -12
50 -4 11 -7 26 -8 31 -3 34 -30 125 -37 125 -4 0 -7 3 -6 8 5 13 -25 92 -34
92 -5 0 -6 5 -3 10 3 6 -1 13 -9 16 -9 3 -14 9 -11 14 6 10 -43 52 -85 71 -57
26 -191 18 -340 -21 -69 -17 -131 -32 -137 -33 -7 0 -13 -3 -13 -6 0 -4 -31
-8 -68 -9 -61 -3 -71 -1 -93 21 -13 14 -40 57 -59 96 -19 39 -38 71 -42 71 -5
0 -8 6 -8 13 0 7 -25 42 -55 77 -30 36 -55 68 -55 73 0 4 -7 7 -15 7 -8 0 -15
6 -15 13 0 7 -12 26 -27 43 -34 36 -65 100 -67 133 -1 13 15 50 35 82 21 31
34 61 31 65 -4 4 -2 4 4 1 9 -5 49 49 47 63 0 3 8 11 19 18 10 7 16 18 13 23
-4 5 -1 9 6 9 7 0 10 3 6 6 -3 3 3 16 15 28 20 22 43 65 40 79 -1 4 2 7 6 7 5
0 17 27 27 60 28 92 15 167 -40 238 -32 42 -175 160 -175 145 0 -4 -7 3 -16
15 -8 12 -19 20 -24 17 -4 -3 -10 -1 -12 3 -5 13 -89 68 -158 103 -61 31 -158
47 -185 31 -5 -4 -15 -7 -21 -8 -19 -3 -64 -36 -64 -47 0 -6 -3 -8 -6 -5 -7 8
-44 -28 -44 -42 0 -5 -4 -10 -9 -10 -9 0 -83 -107 -117 -170 -10 -19 -23 -39
-27 -45 -22 -29 -80 -132 -80 -143 0 -6 -2 -10 -5 -7 -3 2 -13 -6 -23 -19 -17
-21 -27 -24 -77 -23 -31 1 -61 5 -67 8 -13 8 -175 47 -195 47 -63 -1 -258 27
-295 43 -16 7 -34 11 -38 10 -5 -1 -6 3 -3 8 3 5 -1 14 -9 21 -8 7 -13 16 -10
20 2 4 0 22 -5 41 -5 19 -11 53 -14 76 -3 22 -8 52 -11 65 -3 12 -7 37 -9 53
-28 200 -96 319 -210 370 -53 23 -162 35 -178 20z m514 -1909 c37 -4 98 -15
137 -25 39 -10 73 -16 76 -13 3 3 5 1 5 -4 0 -6 19 -18 43 -28 23 -10 57 -30
75 -43 17 -13 32 -21 32 -18 0 3 13 -8 29 -24 16 -16 32 -27 35 -24 3 4 6 2 6
-4 0 -6 20 -32 45 -59 25 -26 45 -51 45 -55 0 -4 6 -14 13 -21 29 -31 83 -170
103 -263 3 -16 7 -78 8 -137 3 -122 -15 -217 -58 -298 -14 -28 -23 -50 -19
-50 5 0 3 -4 -2 -8 -6 -4 -22 -23 -35 -42 -68 -97 -180 -191 -300 -249 -41
-20 -76 -39 -78 -43 -2 -4 -10 -4 -18 -1 -8 3 -14 0 -14 -7 0 -6 -3 -9 -8 -6
-4 2 -32 -2 -62 -10 -168 -43 -385 -35 -514 20 -22 9 -41 14 -44 12 -2 -3 -14
4 -25 15 -12 11 -27 17 -35 14 -7 -2 -10 0 -7 5 3 6 0 10 -8 10 -8 0 -20 7
-27 15 -7 8 -16 13 -20 10 -4 -3 -11 2 -14 11 -3 8 -10 12 -16 9 -5 -3 -10 0
-11 7 0 7 -20 29 -43 48 -24 19 -42 38 -39 42 2 4 -3 10 -10 15 -13 8 -35 42
-79 123 -63 117 -94 302 -75 445 8 53 14 90 17 90 1 0 3 7 5 16 5 29 59 143
77 164 10 11 17 23 17 28 0 4 11 18 23 31 13 14 34 36 47 51 88 96 267 195
416 230 59 14 71 15 145 22 41 3 77 7 79 9 2 2 7 2 10 0 3 -2 36 -7 73 -10z"/>
</g>
</svg>
